<svg xmlns="http://www.w3.org/2000/svg">
<g transform="translate(500,420)">
<path d="M -25 -43 l 50 0 25 43 -25 43 -50 0 -25 -43 z" fill="none" stroke-width="8" stroke="red" transform="scale(.90)"/>
<path d="M -25 -43 l 50 0 25 43 -25 43 -50 0 -25 -43 z" fill="none" stroke-width="2" stroke="black"/>
</g>
<g transform="translate(390,420)">
<path d="M -25 -43 l 50 0 25 43 -25 43 -50 0 -25 -43 z" fill="none" stroke-width="8" stroke="royalblue" transform="scale(.90)"/>
<path d="M -25 -43 l 50 0 25 43 -25 43 -50 0 -25 -43 z" fill="none" stroke-width="2" stroke="black"/>
</g>
<path d="M -25 -43 l 50 0 25 43 -25 43 -50 0 -25 -43 z" fill="none" stroke-width="2" stroke="black" transform="translate(445, 310)"/>
</svg>
